<svg preserveAspectRatio="none" width="100%" height="100%" overflow="visible" style="display: block;" viewBox="0 0 24 24" fill="none" xmlns="http://www.w3.org/2000/svg">
<g id="Frame 2147224666">
<path id="Vector (Stroke)" d="M10.0429 20C10.0429 19.3338 10.4465 18.6081 11.3502 18.0034C12.247 17.4034 13.5434 17 15.025 17C16.5066 17 17.803 17.4034 18.6998 18.0034C19.6036 18.6081 20.0072 19.3338 20.0072 20C20.0072 20.5523 20.4533 21 21.0036 21C21.5539 21 22 20.5523 22 20C22 18.457 21.0653 17.1824 19.8052 16.3393C18.5382 15.4917 16.8452 15 15.025 15C13.2049 15 11.5118 15.4917 10.2448 16.3393C8.98478 17.1824 8.05006 18.457 8.05006 20C8.05006 20.5523 8.49618 21 9.04649 21C9.5968 21 10.0429 20.5523 10.0429 20ZM3.99285 8.99995C3.99285 8.20328 4.14986 7.41381 4.45408 6.6767C4.75809 5.94012 5.20356 5.27071 5.7653 4.70696C6.15442 4.31644 6.15442 3.68342 5.7653 3.29289C5.37617 2.90237 4.74542 2.90237 4.35629 3.29289C3.60956 4.04231 3.01719 4.93193 2.61303 5.91107C2.2091 6.88976 2 7.93946 2 8.99995C2.00002 10.0601 2.2085 11.1099 2.61255 12.0888C3.01677 13.0682 3.60972 13.9577 4.35629 14.707C4.74542 15.0975 5.37617 15.0975 5.7653 14.707C6.15435 14.3165 6.1544 13.6834 5.7653 13.2929C5.20345 12.7291 4.75751 12.0596 4.4536 11.3232C4.14955 10.5865 3.99287 9.79687 3.99285 8.99995ZM12.0358 8.99995C12.0358 7.34309 13.3741 5.99994 15.025 5.99994C16.676 5.99994 18.0143 7.34309 18.0143 8.99995C18.0143 10.6568 16.676 12 15.025 12C13.3741 12 12.0358 10.6568 12.0358 8.99995ZM7.05364 9.00044C7.05366 8.60668 7.13107 8.21609 7.28134 7.852C7.43156 7.48806 7.65185 7.15739 7.9294 6.87885C8.31853 6.48832 8.31853 5.8553 7.9294 5.46478C7.54028 5.07425 6.90953 5.07425 6.5204 5.46478C6.05776 5.92907 5.69066 6.48022 5.44029 7.08686C5.19001 7.69328 5.06081 8.34372 5.06079 9.00044C5.06079 9.65745 5.19007 10.3068 5.44029 10.913C5.69056 11.5194 6.05761 12.0712 6.5204 12.5356C6.90951 12.926 7.54029 12.926 7.9294 12.5356C8.31851 12.1451 8.31847 11.5121 7.9294 11.1215C7.65201 10.8432 7.43167 10.5116 7.28134 10.1474C7.131 9.78311 7.05364 9.39396 7.05364 9.00044ZM10.0429 8.99995C10.0429 11.7614 12.2735 14 15.025 14C17.7766 14 20.0072 11.7614 20.0072 8.99995C20.0072 6.23851 17.7766 3.99993 15.025 3.99993C12.2735 3.99993 10.0429 6.23851 10.0429 8.99995Z" fill="#7D4CCF"/>
</g>
</svg>
