<svg preserveAspectRatio="none" width="100%" height="100%" overflow="visible" style="display: block;" viewBox="0 0 31.8 31.8" fill="none" xmlns="http://www.w3.org/2000/svg">
<g id="Frame 2147223957">
<path id="Vector" d="M1.5 15.9H9.5M1.5 15.9C1.5 23.8529 7.9471 30.3 15.9 30.3M1.5 15.9C1.5 7.9471 7.9471 1.5 15.9 1.5M9.5 15.9H22.3M9.5 15.9C9.5 23.8529 12.3654 30.3 15.9 30.3M9.5 15.9C9.5 7.9471 12.3654 1.5 15.9 1.5M22.3 15.9H30.3M22.3 15.9C22.3 7.9471 19.4346 1.5 15.9 1.5M22.3 15.9C22.3 23.8529 19.4346 30.3 15.9 30.3M30.3 15.9C30.3 7.9471 23.8529 1.5 15.9 1.5M30.3 15.9C30.3 23.8529 23.8529 30.3 15.9 30.3" stroke="var(--stroke-0, #BDBDBD)" stroke-width="3" stroke-linecap="round" stroke-linejoin="round"/>
</g>
</svg>
